<svg xmlns="http://www.w3.org/2000/svg" viewBox="0 0 100 100" role="img" aria-label="La Valle Incantata">
  <defs>
    <clipPath id="coin"><circle cx="50" cy="50" r="45"/></clipPath>
    <linearGradient id="sky" x1="0" y1="0" x2="0" y2="1">
      <stop offset="0" stop-color="#f6ecd9"/><stop offset="1" stop-color="#f0e2c8"/>
    </linearGradient>
    <linearGradient id="sun" x1="0" y1="0" x2="0" y2="1">
      <stop offset="0" stop-color="#e0a05a"/><stop offset="1" stop-color="#c8794f"/>
    </linearGradient>
  </defs>
  <circle cx="50" cy="50" r="45" fill="url(#sky)"/>
  <g clip-path="url(#coin)">
    <circle cx="50" cy="46" r="12" fill="url(#sun)"/>
    <path d="M-3,60 Q22,44 48,56 Q74,68 103,52 V103 H-3 Z" fill="#9bb29e"/>
    <path d="M-3,73 Q28,59 56,71 Q80,80 103,70 V103 H-3 Z" fill="#2f5d50"/>
  </g>
  <circle cx="50" cy="50" r="45" fill="none" stroke="#2f5d50" stroke-width="2.6"/>
  <g fill="#d98b54">
    <path d="M76,20 l1.7,4.4 4.4,1.7 -4.4,1.7 -1.7,4.4 -1.7,-4.4 -4.4,-1.7 4.4,-1.7 Z"/>
    <circle cx="84" cy="33" r="1.3"/>
  </g>
</svg>
